<svg xmlns="http://www.w3.org/2000/svg" xmlns:xlink="http://www.w3.org/1999/xlink" height="800" width="1200" viewBox="-44.83365 -88.3085 388.5583 529.851"><g transform="translate(-.956 -.214)"><defs><path id="a" d="M0 0h301v354.7H0z"/></defs><clipPath id="b"><use height="100%" width="100%" xlink:href="#a" overflow="visible"/></clipPath><path clip-path="url(#b)" d="M71.1 353.2h-3c-2.6-.1-3.3-1.1-2.3-3.5 4-9.3 8.1-18.6 12.2-27.9 2.1-4.9 4.2-9.8 6.4-14.6.6-1.2.6-2.2.1-3.5-4.3-10.9-8.6-21.7-12.9-32.6-1.9-4.8-.4-8.2 4.4-10.1 12.8-5 25.6-10 38.4-15.1 2-.8 4-1.5 5.8.4 1.8 1.9 1.8 4.2.8 6.5-3.5 8.2-7.1 16.4-10.7 24.6-10.2 23.4-20.5 46.8-30.5 70.3-1.7 3.9-3.8 6.6-8.7 5.5" fill="#053975"/></g><g transform="translate(-.956 -.214)"><defs><path id="c" d="M0 0h301v354.7H0z"/></defs><clipPath id="d"><use height="100%" width="100%" xlink:href="#c" overflow="visible"/></clipPath><path clip-path="url(#d)" d="M227.8.5h2.8c2.9 0 3.6 1 2.4 3.7-5.2 11.9-10.2 23.9-15.6 35.7-2 4.3-2.1 7.9-.2 12.3 4.1 9.3 7.6 18.8 11.3 28.3 1.8 4.7.4 8.1-4.4 9.9-12.8 5.1-25.6 10.1-38.4 15.1-2.1.8-4.1 1.6-6-.4-1.8-2-1.7-4.2-.7-6.5l9.6-22.2c10.2-23.4 20.5-46.8 30.5-70.2 1.8-4.2 3.8-6.9 8.7-5.7" fill="#053975"/></g><g transform="translate(-.956 -.214)"><defs><path id="e" d="M0 0h301v354.7H0z"/></defs><clipPath id="f"><use height="100%" width="100%" xlink:href="#e" overflow="visible"/></clipPath><path clip-path="url(#f)" d="M184.8 316.1c0 2.5-.6 4.2-2.4 5.4-1.9 1.2-3.5.4-5.1-.6-11.9-7.6-23.8-15.1-35.7-22.7-3.8-2.5-4.6-6.3-2.2-10.2 7.4-11.7 14.9-23.4 22.4-35.1 1.1-1.8 2.3-3.7 4.8-3.2 2.8.5 4.1 2.5 4.7 5.1 1.6 7 3.1 14 4.7 20.9 2.8 12.8 5.7 25.7 8.5 38.5.1.8.2 1.6.3 1.9" fill="#4284f3"/></g><g transform="translate(-.956 -.214)"><defs><path id="g" d="M0 0h301v354.7H0z"/></defs><clipPath id="h"><use height="100%" width="100%" xlink:href="#g" overflow="visible"/></clipPath><path clip-path="url(#h)" d="M69.1 171.7c-10.4-1-20.2-1.9-30-2.8-10.5-1-21-2.1-31.5-3.1-1.2-.1-2.4-.3-3.6-.8-3.6-1.7-4.1-5.3-1-7.8 11-9.1 22-18.2 33-27.2 3.5-2.9 7.4-2.4 10.3 1.2 8.9 10.8 17.7 21.6 26.6 32.3 1.3 1.6 2.4 3.3 1.3 5.4-1.2 2.2-3.3 2.7-5.1 2.8" fill="#255fda"/></g><g transform="translate(-.956 -.214)"><defs><path id="i" d="M0 0h301v354.7H0z"/></defs><clipPath id="j"><use height="100%" width="100%" xlink:href="#i" overflow="visible"/></clipPath><path clip-path="url(#j)" d="M83 215.3c-.1 2-1.2 3.5-2.8 4.5-1.9 1.2-3.9 2.4-5.9 3.6-15.7 9.2-31.3 18.4-47 27.7-1.7 1-3.4 1.8-5.4 1.4-2.7-.5-4.2-2.5-3.5-5.2 3.6-14.2 7.2-28.3 10.9-42.5 1-3.9 4.7-5.7 9-4.6 6.3 1.6 12.7 3.3 19 4.9 7.2 1.9 14.4 3.7 21.7 5.6 2.9.8 4.1 2.2 4 4.6" fill="#0e3ec0"/></g><g transform="translate(-.956 -.214)"><defs><path id="k" d="M0 0h301v354.7H0z"/></defs><clipPath id="l"><use height="100%" width="100%" xlink:href="#k" overflow="visible"/></clipPath><path clip-path="url(#l)" d="M95.4 121.7c.1 3.3-2.8 5.3-6.6 3.9-1-.4-1.8-1-2.5-1.6-15.2-13.5-30.4-27-45.6-40.4-.9-.8-1.8-1.7-2.3-2.9-1.5-3.3.2-6.4 3.8-6.6 9.8-.6 19.7-1.2 29.5-1.8 4.4-.3 8.8-.5 13.2-.8 4.1-.3 7.4 2.4 7.7 6.3 1 14.3 1.8 28.7 2.8 43.9" fill="#255fda"/></g><g transform="translate(-.956 -.214)"><defs><path id="m" d="M0 0h301v354.7H0z"/></defs><clipPath id="n"><use height="100%" width="100%" xlink:href="#m" overflow="visible"/></clipPath><path clip-path="url(#n)" d="M260.3 222.3c-2.2 0-3.9-.7-5.2-2.3-9.3-11.2-18.5-22.5-27.8-33.8-1.2-1.4-1.6-3-.6-4.7 1.3-2.2 3.4-2.9 5.7-2.8 5.1.4 10.3 1 15.4 1.5 12.1 1.2 24.2 2.4 36.4 3.5 3.4.3 6.8.6 10.1 1 1 .1 2 .4 2.8.9 3.3 1.7 3.7 5.2.8 7.5-6 5-12.1 10-18.2 15-4.9 4.1-9.9 8.1-14.8 12.2-1.3 1.4-2.8 2.1-4.6 2" fill="#255fda"/></g><g transform="translate(-.956 -.214)"><defs><path id="o" d="M0 0h301v354.7H0z"/></defs><clipPath id="p"><use height="100%" width="100%" xlink:href="#o" overflow="visible"/></clipPath><path clip-path="url(#p)" d="M133.4 101c-2.4 0-4.4-1.7-5.2-4.8-1.5-6.1-2.8-12.3-4.2-18.5-3-13.7-6.1-27.3-9.1-41-.2-.8-.4-1.5-.4-2.3-.1-2.2.5-4.2 2.5-5.4 1.7-1 3.4-.4 5 .6 11.8 7.5 23.7 15 35.5 22.6 4.2 2.7 5 6.3 2.3 10.6-7.5 11.8-15 23.5-22.5 35.3-.9 1.6-1.9 2.9-3.9 2.9" fill="#4284f3"/></g><g transform="translate(-.956 -.214)"><defs><path id="q" d="M0 0h301v354.7H0z"/></defs><clipPath id="r"><use height="100%" width="100%" xlink:href="#q" overflow="visible"/></clipPath><path clip-path="url(#r)" d="M216.5 279.4c-3.8.2-7-2.6-7.2-6.5-.9-14.3-1.8-28.6-2.6-42.9-.2-3.9 2.7-6 6.4-4.7 1 .4 1.9 1 2.7 1.7 15.2 13.4 30.4 26.9 45.5 40.3.9.8 1.7 1.6 2.2 2.7 1.7 3.4 0 6.6-3.8 6.8-14.4.9-28.8 1.8-43.2 2.6" fill="#255fda"/></g><g transform="translate(-.956 -.214)"><defs><path id="s" d="M0 0h301v354.7H0z"/></defs><clipPath id="t"><use height="100%" width="100%" xlink:href="#s" overflow="visible"/></clipPath><path clip-path="url(#t)" d="M280.2 103.5c-.9 3.6-1.9 7.7-3 11.8-2.6 10.1-5.2 20.1-7.8 30.2-1.3 5-4.5 6.9-9.5 5.6-13.4-3.5-26.8-6.9-40.2-10.4-1.9-.5-3.8-1.2-4.2-3.4-.5-2.3.7-4 2.4-5.4.7-.5 1.4-1 2.1-1.4 17-10 34.1-20.1 51.1-30.1 1.8-1.1 3.7-1.9 5.9-1.3 2 .5 3.1 1.8 3.2 4.4" fill="#0e3ec0"/></g></svg>